<?xml version="1.0" standalone="no"?>
<!DOCTYPE svg PUBLIC "-//W3C//DTD SVG 20010904//EN"
 "http://www.w3.org/TR/2001/REC-SVG-20010904/DTD/svg10.dtd">
<svg version="1.0" xmlns="http://www.w3.org/2000/svg"
 width="260.000000pt" height="260.000000pt" viewBox="0 0 260.000000 260.000000"
 preserveAspectRatio="xMidYMid meet">
<metadata>
Created by potrace 1.11, written by Peter Selinger 2001-2013
</metadata>
<g transform="translate(0.000000,260.000000) scale(0.100000,-0.100000)"
fill="#000000" stroke="none">
<path d="M1430 2374 c-151 -63 -285 -119 -298 -124 -13 -6 -26 -10 -30 -10 -4
-1 -25 -9 -47 -20 -22 -11 -43 -19 -48 -20 -4 0 -26 -9 -50 -19 -43 -19 -56
-25 -382 -155 -245 -99 -268 -110 -303 -150 -56 -64 -55 -53 -55 -802 l0 -690
27 -50 c32 -59 85 -98 146 -110 25 -5 446 -9 936 -8 l890 1 50 27 c56 30 92
78 108 140 7 28 11 265 10 722 -1 671 -1 679 -22 721 -26 50 -84 100 -132 113
-21 6 -295 10 -680 11 -355 0 -638 3 -630 6 8 3 29 11 45 19 17 7 176 72 355
144 179 72 334 134 345 139 11 5 40 17 65 27 25 10 49 21 53 24 10 8 -54 173
-68 176 -6 1 -134 -50 -285 -112z m721 -643 c14 -1 16 -21 15 -158 l-1 -158
-107 -3 -107 -3 -3 108 -3 107 -95 1 c-52 1 -100 0 -106 -2 -8 -3 -11 -39 -11
-106 l1 -102 -650 -3 -651 -2 0 159 c0 136 2 161 15 163 13 3 1655 1 1703 -1z
m-115 -541 l131 0 -1 -377 -1 -378 -865 0 -865 0 -1 377 -1 378 451 2 c248 2
579 2 736 1 157 -1 344 -3 416 -3z"/>
<path d="M805 1078 c-99 -21 -186 -111 -201 -210 -11 -68 -10 -81 9 -140 50
-152 225 -225 371 -154 99 48 158 149 150 258 -10 166 -164 281 -329 246z"/>
</g>
</svg>
